{
  "accessors": [
    {
      "bufferView": 2,
      "componentType": 5126,
      "count": 134,
      "max": [
        0.9432139992713928,
        2.2792720794677734,
        1.0627570152282715
      ],
      "min": [
        -0.9432139992713928,
        2.165457010269165,
        0.8341540098190308
      ],
      "type": "VEC3"
    },
    {
      "bufferView": 2,
      "byteOffset": 1608,
      "componentType": 5126,
      "count": 134,
      "max": [
        0.7253053784370422,
        0.9976121783256531,
        0.3418152928352356
      ],
      "min": [
        -0.7253053784370422,
        0.5585195422172546,
        -0.6906955242156982
      ],
      "type": "VEC3"
    },
    {
      "bufferView": 1,
      "componentType": 5126,
      "count": 134,
      "max": [
        0.9916989803314209,
        0.9785159826278687
      ],
      "min": [
        0.009398999623954296,
        0.03909299895167351
      ],
      "type": "VEC2"
    },
    {
      "bufferView": 1,
      "byteOffset": 1072,
      "componentType": 5126,
      "count": 134,
      "max": [
        0.9916989803314209,
        0.9785159826278687
      ],
      "min": [
        0.009398999623954296,
        0.03909299895167351
      ],
      "type": "VEC2"
    },
    {
      "bufferView": 1,
      "byteOffset": 2144,
      "componentType": 5126,
      "count": 134,
      "max": [
        0.9916989803314209,
        0.9785159826278687
      ],
      "min": [
        0.009398999623954296,
        0.03909299895167351
      ],
      "type": "VEC2"
    },
    {
      "bufferView": 0,
      "componentType": 5125,
      "count": 276,
      "type": "SCALAR"
    },
    {
      "bufferView": 2,
      "byteOffset": 3216,
      "componentType": 5126,
      "count": 422,
      "max": [
        0.8474760055541992,
        -1.818547010421753,
        0.8225290179252625
      ],
      "min": [
        -0.8474760055541992,
        -2.115372896194458,
        0.6584839820861816
      ],
      "type": "VEC3"
    },
    {
      "bufferView": 2,
      "byteOffset": 8280,
      "componentType": 5126,
      "count": 422,
      "max": [
        0.9964401721954346,
        -0.0254003144800663,
        0.9969714283943176
      ],
      "min": [
        -0.9964401721954346,
        -0.9769660830497742,
        -0.8695206046104431
      ],
      "type": "VEC3"
    },
    {
      "bufferView": 1,
      "byteOffset": 3216,
      "componentType": 5126,
      "count": 422,
      "max": [
        0.9316409826278687,
        0.9487299919128418
      ],
      "min": [
        0.027130000293254852,
        0.048461999744176865
      ],
      "type": "VEC2"
    },
    {
      "bufferView": 1,
      "byteOffset": 6592,
      "componentType": 5126,
      "count": 422,
      "max": [
        0.9316409826278687,
        0.9487299919128418
      ],
      "min": [
        0.027130000293254852,
        0.048461999744176865
      ],
      "type": "VEC2"
    },
    {
      "bufferView": 1,
      "byteOffset": 9968,
      "componentType": 5126,
      "count": 422,
      "max": [
        0.9316409826278687,
        0.9487299919128418
      ],
      "min": [
        0.027130000293254852,
        0.048461999744176865
      ],
      "type": "VEC2"
    },
    {
      "bufferView": 0,
      "byteOffset": 1104,
      "componentType": 5125,
      "count": 948,
      "type": "SCALAR"
    },
    {
      "bufferView": 2,
      "byteOffset": 13344,
      "componentType": 5126,
      "count": 8728,
      "max": [
        1.1486990451812744,
        2.4852850437164307,
        1.4550809860229492
      ],
      "min": [
        -1.1486999988555908,
        -2.239912986755371,
        0.05162300169467926
      ],
      "type": "VEC3"
    },
    {
      "bufferView": 2,
      "byteOffset": 118080,
      "componentType": 5126,
      "count": 8728,
      "max": [
        1.0,
        1.0,
        1.0
      ],
      "min": [
        -1.0,
        -1.0,
        -1.0
      ],
      "type": "VEC3"
    },
    {
      "bufferView": 1,
      "byteOffset": 13344,
      "componentType": 5126,
      "count": 8728,
      "max": [
        0.9975590109825134,
        0.9975590109825134
      ],
      "min": [
        0.0004920000210404396,
        0.001541999983601272
      ],
      "type": "VEC2"
    },
    {
      "bufferView": 1,
      "byteOffset": 83168,
      "componentType": 5126,
      "count": 8728,
      "max": [
        0.9975590109825134,
        0.9975590109825134
      ],
      "min": [
        0.0004920000210404396,
        0.001541999983601272
      ],
      "type": "VEC2"
    },
    {
      "bufferView": 1,
      "byteOffset": 152992,
      "componentType": 5126,
      "count": 8728,
      "max": [
        0.9975590109825134,
        0.9975590109825134
      ],
      "min": [
        0.0004920000210404396,
        0.001541999983601272
      ],
      "type": "VEC2"
    },
    {
      "bufferView": 1,
      "byteOffset": 222816,
      "componentType": 5126,
      "count": 8728,
      "max": [
        0.9975590109825134,
        0.9975590109825134
      ],
      "min": [
        0.0004920000210404396,
        0.001541999983601272
      ],
      "type": "VEC2"
    },
    {
      "bufferView": 1,
      "byteOffset": 292640,
      "componentType": 5126,
      "count": 8728,
      "max": [
        0.9975590109825134,
        0.9975590109825134
      ],
      "min": [
        0.0004920000210404396,
        0.001541999983601272
      ],
      "type": "VEC2"
    },
    {
      "bufferView": 0,
      "byteOffset": 4896,
      "componentType": 5125,
      "count": 18894,
      "type": "SCALAR"
    },
    {
      "bufferView": 2,
      "byteOffset": 222816,
      "componentType": 5126,
      "count": 1829,
      "max": [
        1.0496519804000854,
        1.7506070137023926,
        0.8837190270423889
      ],
      "min": [
        -1.0496519804000854,
        -1.750609040260315,
        -0.0037579999770969152
      ],
      "type": "VEC3"
    },
    {
      "bufferView": 2,
      "byteOffset": 244764,
      "componentType": 5126,
      "count": 1829,
      "max": [
        1.0,
        0.9773790240287781,
        0.9774202704429626
      ],
      "min": [
        -1.0,
        -0.9773790240287781,
        -0.9774202704429626
      ],
      "type": "VEC3"
    },
    {
      "bufferView": 1,
      "byteOffset": 362464,
      "componentType": 5126,
      "count": 1829,
      "max": [
        2.0,
        0.9497069716453552
      ],
      "min": [
        0.0,
        0.01193199958652258
      ],
      "type": "VEC2"
    },
    {
      "bufferView": 1,
      "byteOffset": 377096,
      "componentType": 5126,
      "count": 1829,
      "max": [
        2.0,
        0.9497069716453552
      ],
      "min": [
        0.0,
        0.01193199958652258
      ],
      "type": "VEC2"
    },
    {
      "bufferView": 1,
      "byteOffset": 391728,
      "componentType": 5126,
      "count": 1829,
      "max": [
        2.0,
        0.9497069716453552
      ],
      "min": [
        0.0,
        0.01193199958652258
      ],
      "type": "VEC2"
    },
    {
      "bufferView": 1,
      "byteOffset": 406360,
      "componentType": 5126,
      "count": 1829,
      "max": [
        2.0,
        0.9497069716453552
      ],
      "min": [
        0.0,
        0.01193199958652258
      ],
      "type": "VEC2"
    },
    {
      "bufferView": 1,
      "byteOffset": 420992,
      "componentType": 5126,
      "count": 1829,
      "max": [
        2.0,
        0.9497069716453552
      ],
      "min": [
        0.0,
        0.01193199958652258
      ],
      "type": "VEC2"
    },
    {
      "bufferView": 0,
      "byteOffset": 80472,
      "componentType": 5125,
      "count": 5040,
      "type": "SCALAR"
    },
    {
      "bufferView": 2,
      "byteOffset": 266712,
      "componentType": 5126,
      "count": 65,
      "max": [
        0.7802919745445251,
        -0.1225539967417717,
        1.3788959980010986
      ],
      "min": [
        -0.7802919745445251,
        -0.6453149914741516,
        0.9344469904899597
      ],
      "type": "VEC3"
    },
    {
      "bufferView": 2,
      "byteOffset": 267492,
      "componentType": 5126,
      "count": 65,
      "max": [
        0.42001837491989136,
        -0.589285135269165,
        0.7109960317611694
      ],
      "min": [
        -0.4199894368648529,
        -0.7066066265106201,
        0.6773020029067993
      ],
      "type": "VEC3"
    },
    {
      "bufferView": 1,
      "byteOffset": 435624,
      "componentType": 5126,
      "count": 65,
      "max": [
        1.0,
        1.0
      ],
      "min": [
        0.0,
        0.0
      ],
      "type": "VEC2"
    },
    {
      "bufferView": 1,
      "byteOffset": 436144,
      "componentType": 5126,
      "count": 65,
      "max": [
        1.0,
        1.0
      ],
      "min": [
        0.0,
        0.0
      ],
      "type": "VEC2"
    },
    {
      "bufferView": 1,
      "byteOffset": 436664,
      "componentType": 5126,
      "count": 65,
      "max": [
        1.0,
        1.0
      ],
      "min": [
        0.0,
        0.0
      ],
      "type": "VEC2"
    },
    {
      "bufferView": 1,
      "byteOffset": 437184,
      "componentType": 5126,
      "count": 65,
      "max": [
        1.0,
        1.0
      ],
      "min": [
        0.0,
        0.0
      ],
      "type": "VEC2"
    },
    {
      "bufferView": 1,
      "byteOffset": 437704,
      "componentType": 5126,
      "count": 65,
      "max": [
        1.0,
        1.0
      ],
      "min": [
        0.0,
        0.0
      ],
      "type": "VEC2"
    },
    {
      "bufferView": 0,
      "byteOffset": 100632,
      "componentType": 5125,
      "count": 144,
      "type": "SCALAR"
    }
  ],
  "asset": {
    "extras": {
      "author": "LukeMcQueen02 (https://sketchfab.com/lukemcqueen02)",
      "license": "CC-BY-4.0 (http://creativecommons.org/licenses/by/4.0/)",
      "source": "https://sketchfab.com/3d-models/lightning-mcqueen-wgp-c02fc1e77810412188911a65260b639e",
      "title": "Lightning McQueen (WGP)"
    },
    "generator": "Sketchfab-16.67.0",
    "version": "2.0"
  },
  "bufferViews": [
    {
      "buffer": 0,
      "byteLength": 101208,
      "name": "floatBufferViews",
      "target": 34963
    },
    {
      "buffer": 0,
      "byteLength": 438224,
      "byteOffset": 101208,
      "byteStride": 8,
      "name": "floatBufferViews",
      "target": 34962
    },
    {
      "buffer": 0,
      "byteLength": 268272,
      "byteOffset": 539432,
      "byteStride": 12,
      "name": "floatBufferViews",
      "target": 34962
    }
  ],
  "buffers": [
    {
      "byteLength": 807704,
      "uri": "scene.bin"
    }
  ],
  "extensionsUsed": [
    "KHR_materials_specular",
    "KHR_materials_clearcoat"
  ],
  "images": [
    {
      "uri": "textures/material_baseColor.png"
    },
    {
      "uri": "textures/material_1_baseColor.png"
    },
    {
      "uri": "textures/material_2_baseColor.jpeg"
    },
    {
      "uri": "textures/material_3_baseColor.png"
    },
    {
      "uri": "textures/material_4_baseColor.jpeg"
    },
    {
      "uri": "textures/material_4_metallicRoughness.png"
    }
  ],
  "materials": [
    {
      "doubleSided": true,
      "extensions": {
        "KHR_materials_specular": {
          "specularColorFactor": [
            1.0,
            1.0,
            1.0
          ],
          "specularFactor": 1.0
        }
      },
      "name": "material",
      "pbrMetallicRoughness": {
        "baseColorTexture": {
          "index": 0
        },
        "metallicFactor": 0.0,
        "roughnessFactor": 0.0
      }
    },
    {
      "doubleSided": true,
      "extensions": {
        "KHR_materials_clearcoat": {
          "clearcoatFactor": 1.0,
          "clearcoatRoughnessFactor": 0.04
        }
      },
      "name": "material_1",
      "pbrMetallicRoughness": {
        "baseColorTexture": {
          "index": 1
        },
        "metallicFactor": 0.0,
        "roughnessFactor": 0.0
      }
    },
    {
      "doubleSided": true,
      "extensions": {
        "KHR_materials_specular": {
          "specularColorFactor": [
            1.0,
            1.0,
            1.0
          ],
          "specularFactor": 0.4921919762041179
        }
      },
      "name": "material_2",
      "pbrMetallicRoughness": {
        "baseColorTexture": {
          "index": 2
        },
        "metallicFactor": 0.0,
        "roughnessFactor": 0.0
      }
    },
    {
      "doubleSided": true,
      "name": "material_3",
      "pbrMetallicRoughness": {
        "baseColorFactor": [
          0.5958113396155111,
          0.5958113396155111,
          0.5958113396155111,
          1.0
        ],
        "baseColorTexture": {
          "index": 3
        },
        "metallicFactor": 0.0,
        "roughnessFactor": 0.4712364837683315
      }
    },
    {
      "doubleSided": true,
      "name": "material_4",
      "pbrMetallicRoughness": {
        "baseColorTexture": {
          "index": 4
        },
        "metallicFactor": 0.0,
        "metallicRoughnessTexture": {
          "index": 5,
          "texCoord": 1
        }
      }
    }
  ],
  "meshes": [
    {
      "name": "Object_0",
      "primitives": [
        {
          "attributes": {
            "NORMAL": 1,
            "POSITION": 0,
            "TEXCOORD_0": 2,
            "TEXCOORD_1": 3,
            "TEXCOORD_2": 4
          },
          "indices": 5,
          "material": 0,
          "mode": 4
        }
      ]
    },
    {
      "name": "Object_1",
      "primitives": [
        {
          "attributes": {
            "NORMAL": 7,
            "POSITION": 6,
            "TEXCOORD_0": 8,
            "TEXCOORD_1": 9,
            "TEXCOORD_2": 10
          },
          "indices": 11,
          "material": 1,
          "mode": 4
        }
      ]
    },
    {
      "name": "Object_2",
      "primitives": [
        {
          "attributes": {
            "NORMAL": 13,
            "POSITION": 12,
            "TEXCOORD_0": 14,
            "TEXCOORD_1": 15,
            "TEXCOORD_2": 16,
            "TEXCOORD_3": 17,
            "TEXCOORD_4": 18
          },
          "indices": 19,
          "material": 2,
          "mode": 4
        }
      ]
    },
    {
      "name": "Object_3",
      "primitives": [
        {
          "attributes": {
            "NORMAL": 21,
            "POSITION": 20,
            "TEXCOORD_0": 22,
            "TEXCOORD_1": 23,
            "TEXCOORD_2": 24,
            "TEXCOORD_3": 25,
            "TEXCOORD_4": 26
          },
          "indices": 27,
          "material": 3,
          "mode": 4
        }
      ]
    },
    {
      "name": "Object_4",
      "primitives": [
        {
          "attributes": {
            "NORMAL": 29,
            "POSITION": 28,
            "TEXCOORD_0": 30,
            "TEXCOORD_1": 31,
            "TEXCOORD_2": 32,
            "TEXCOORD_3": 33,
            "TEXCOORD_4": 34
          },
          "indices": 35,
          "material": 4,
          "mode": 4
        }
      ]
    }
  ],
  "nodes": [
    {
      "children": [
        1
      ],
      "matrix": [
        1.0,
        0.0,
        0.0,
        0.0,
        0.0,
        2.220446049250313e-16,
        -1.0,
        0.0,
        0.0,
        1.0,
        2.220446049250313e-16,
        0.0,
        0.0,
        0.0,
        0.0,
        1.0
      ],
      "name": "Sketchfab_model"
    },
    {
      "children": [
        2
      ],
      "name": "root"
    },
    {
      "children": [
        3
      ],
      "matrix": [
        1.0,
        0.0,
        0.0,
        0.0,
        0.0,
        2.220446049250313e-16,
        1.0,
        0.0,
        0.0,
        -1.0,
        2.220446049250313e-16,
        0.0,
        0.0,
        0.0,
        0.0,
        1.0
      ],
      "name": "GLTF_SceneRootNode"
    },
    {
      "children": [
        4
      ],
      "matrix": [
        1.0,
        0.0,
        0.0,
        0.0,
        0.0,
        2.220446049250313e-16,
        -1.0,
        0.0,
        0.0,
        1.0,
        2.220446049250313e-16,
        0.0,
        0.0,
        0.0,
        0.0,
        1.0
      ],
      "name": "Sketchfab_model_0"
    },
    {
      "children": [
        5
      ],
      "name": "root_1"
    },
    {
      "children": [
        6
      ],
      "matrix": [
        1.0,
        0.0,
        0.0,
        0.0,
        0.0,
        2.220446049250313e-16,
        1.0,
        0.0,
        0.0,
        -1.0,
        2.220446049250313e-16,
        0.0,
        0.0,
        0.0,
        0.0,
        1.0
      ],
      "name": "GLTF_SceneRootNode_2"
    },
    {
      "children": [
        7
      ],
      "name": "root_0_3"
    },
    {
      "children": [
        8,
        12,
        16,
        20,
        24
      ],
      "matrix": [
        0.0010000000474974513,
        0.0,
        3.725290475403709e-12,
        0.0,
        0.0,
        0.0010000000474974513,
        0.0,
        0.0,
        -3.725290475403709e-12,
        0.0,
        0.0010000000474974513,
        0.0,
        9.632652790969587e-07,
        -0.03942546993494034,
        -0.27546724677085876,
        1.0
      ],
      "name": "node_id44_1_4"
    },
    {
      "children": [
        9
      ],
      "matrix": [
        222.8607177734375,
        -0.0,
        0.0,
        0.0,
        0.0,
        3.757150625460781e-05,
        -222.86070251464844,
        0.0,
        0.0,
        222.86070251464844,
        3.757150625460781e-05,
        0.0,
        0.0006066812202334404,
        -161.72122192382813,
        553.872314453125,
        1.0
      ],
      "name": "node_id29_4_5"
    },
    {
      "children": [
        10
      ],
      "name": "node_id30_7_6"
    },
    {
      "children": [
        11
      ],
      "name": "Object_7_7"
    },
    {
      "mesh": 0,
      "name": "Object_11"
    },
    {
      "children": [
        13
      ],
      "matrix": [
        222.8607177734375,
        -0.0,
        0.0,
        0.0,
        0.0,
        3.757150625460781e-05,
        -222.86070251464844,
        0.0,
        0.0,
        222.86070251464844,
        3.757150625460781e-05,
        0.0,
        0.0006066812202334404,
        -161.72122192382813,
        553.872314453125,
        1.0
      ],
      "name": "node_id32_8_8"
    },
    {
      "children": [
        14
      ],
      "name": "node_id33_10_9"
    },
    {
      "children": [
        15
      ],
      "name": "Object_10_10"
    },
    {
      "mesh": 1,
      "name": "Object_15"
    },
    {
      "children": [
        17
      ],
      "matrix": [
        222.8607177734375,
        -0.0,
        0.0,
        0.0,
        0.0,
        3.757150625460781e-05,
        -222.86070251464844,
        0.0,
        0.0,
        222.86070251464844,
        3.757150625460781e-05,
        0.0,
        0.0006066812202334404,
        -161.72122192382813,
        553.872314453125,
        1.0
      ],
      "name": "node_id35_2_11"
    },
    {
      "children": [
        18
      ],
      "name": "node_id36_3_12"
    },
    {
      "children": [
        19
      ],
      "name": "Object_13_13"
    },
    {
      "mesh": 2,
      "name": "Object_19"
    },
    {
      "children": [
        21
      ],
      "matrix": [
        222.8607177734375,
        -0.0,
        0.0,
        0.0,
        0.0,
        3.757150625460781e-05,
        -222.86070251464844,
        0.0,
        0.0,
        222.86070251464844,
        3.757150625460781e-05,
        0.0,
        0.0006066812202334404,
        -161.72122192382813,
        553.872314453125,
        1.0
      ],
      "name": "node_id38_5_14"
    },
    {
      "children": [
        22
      ],
      "name": "node_id39_11_15"
    },
    {
      "children": [
        23
      ],
      "name": "Object_16_16"
    },
    {
      "mesh": 3,
      "name": "Object_23"
    },
    {
      "children": [
        25
      ],
      "matrix": [
        222.8607177734375,
        -0.0,
        0.0,
        0.0,
        0.0,
        3.757150625460781e-05,
        -222.86070251464844,
        0.0,
        0.0,
        222.86070251464844,
        3.757150625460781e-05,
        0.0,
        0.0006066812202334404,
        -161.72122192382813,
        553.872314453125,
        1.0
      ],
      "name": "node_id41_6_17"
    },
    {
      "children": [
        26
      ],
      "name": "node_id42_9_18"
    },
    {
      "children": [
        27
      ],
      "name": "Object_19_19"
    },
    {
      "mesh": 4,
      "name": "Object_27"
    }
  ],
  "samplers": [
    {
      "magFilter": 9729,
      "minFilter": 9987,
      "wrapS": 10497,
      "wrapT": 10497
    }
  ],
  "scene": 0,
  "scenes": [
    {
      "name": "Sketchfab_Scene",
      "nodes": [
        0
      ]
    }
  ],
  "textures": [
    {
      "sampler": 0,
      "source": 0
    },
    {
      "sampler": 0,
      "source": 1
    },
    {
      "sampler": 0,
      "source": 2
    },
    {
      "sampler": 0,
      "source": 3
    },
    {
      "sampler": 0,
      "source": 4
    },
    {
      "sampler": 0,
      "source": 5
    }
  ]
}
